<svg xmlns="http://www.w3.org/2000/svg" width="197.579" height="43.418" viewBox="0 0 197.579 43.418">
  <g id="Group_537" data-name="Group 537" transform="translate(-172.64 -552.341)">
    <path id="Path_1371" data-name="Path 1371" d="M202.875,584.073a8.488,8.488,0,1,1,0-12,8.5,8.5,0,0,1,0,12m2.037-14.044a11.37,11.37,0,1,0-1.555,17.369,2.365,2.365,0,0,0,.649,1.2l6.454,6.455a2.4,2.4,0,1,0,3.4-3.4L207.4,585.2a2.363,2.363,0,0,0-1.2-.649A11.376,11.376,0,0,0,204.913,570.03Zm-8.867-8.427a17.475,17.475,0,0,0-5.057-6.908,13.664,13.664,0,0,1,9.374,6.908Zm-6.631,0v-5.46a15.425,15.425,0,0,1,4.312,5.46Zm-2.093,0h-4.314a15.44,15.44,0,0,1,4.313-5.46v5.46Zm-6.63,0h-4.318a13.675,13.675,0,0,1,9.375-6.908A17.5,17.5,0,0,0,180.691,561.6Zm-.768,10.31H175.3a13.442,13.442,0,0,1,.17-8.212H180a16.959,16.959,0,0,0-.08,8.212Zm8.443-19.572a15.715,15.715,0,0,0-2.518,31.228,12.134,12.134,0,0,1-.879-2.342,13.66,13.66,0,0,1-8.851-7.221h4.442a17.366,17.366,0,0,0,4.207,6.367,12.4,12.4,0,0,1-.166-3.385,15.2,15.2,0,0,1-1.756-2.982h2.4a12.153,12.153,0,0,1,.959-2.1h-4.117a14.581,14.581,0,0,1,.113-8.215h5.118v6.576a11.8,11.8,0,0,1,.835-.924,12.208,12.208,0,0,1,1.263-1.086V563.7h5.119a16.4,16.4,0,0,1,.487,2.194,12.859,12.859,0,0,1,1.851-.151c.085,0,.171.012.256.013a16.636,16.636,0,0,0-.4-2.057h4.531a13.6,13.6,0,0,1,.672,3.132,12.621,12.621,0,0,1,2.158,1.253v-.02A15.742,15.742,0,0,0,188.366,552.341Z" transform="translate(0)" fill="#1299ce" fill-rule="evenodd"/>
    <path id="Path_1372" data-name="Path 1372" d="M213.639,592.63a2.827,2.827,0,0,0-.306-1.416,2.663,2.663,0,0,0-.769-.858,3.953,3.953,0,0,0-.994-.51q-.531-.184-.994-.381a2.8,2.8,0,0,1-.769-.47.952.952,0,0,1-.306-.749.969.969,0,0,1,.191-.579.687.687,0,0,1,.6-.266.587.587,0,0,1,.545.306,1.407,1.407,0,0,1,.177.715v.2h2.369a3.063,3.063,0,0,0-.613-2.09,2.707,2.707,0,0,0-1.653-.782v-1.084h-1.928v1.115a2.642,2.642,0,0,0-2.137,2.882,2.718,2.718,0,0,0,.293,1.348,2.574,2.574,0,0,0,.735.838,4.166,4.166,0,0,0,.96.517q.517.2.96.395a2.687,2.687,0,0,1,.735.47.958.958,0,0,1,.293.735.986.986,0,0,1-.138.521.9.9,0,0,1-.074.105.738.738,0,0,1-.606.259.826.826,0,0,1-.613-.232.568.568,0,0,1-.1-.133,1.511,1.511,0,0,1-.134-.711v-.259h-2.452v.367a4.053,4.053,0,0,0,.042.6,2.054,2.054,0,0,0,.626,1.284l.012.01a3.17,3.17,0,0,0,1.594.669v1.3h1.928v-1.3a3.512,3.512,0,0,0,1.688-.675c.04-.032.079-.065.115-.1a2.208,2.208,0,0,0,.637-1.2,4.082,4.082,0,0,0,.085-.862" transform="translate(-13.393 -12.634)" fill="#1299ce" fill-rule="evenodd"/>
    <path id="Path_1373" data-name="Path 1373" d="M390.53,590.412H400.5v-2.8h-6.86v-16.8H390.53Zm-20.723-19.6h-4v19.6h3V575.235l5.853,13.441h2.968l5.853-13.441v15.177h3v-19.6h-4l-6.329,14.31ZM357.458,582.1h-5.432l2.716-7.925Zm.868,2.6,2.016,5.713h3.136l-7.141-19.6h-3.221l-7.141,19.6h3.137l2.044-5.713Zm-35.955-1.568a7.437,7.437,0,0,0,7.729,7.645,7.673,7.673,0,1,0-7.729-7.645Zm3.08,0a4.684,4.684,0,1,1,4.648,4.929A4.608,4.608,0,0,1,325.451,583.131Zm-4.621-5.909a7.353,7.353,0,0,0-4.872-1.792,7.673,7.673,0,0,0,.028,15.346,7.366,7.366,0,0,0,4.845-1.82l-.868-2.52a5.7,5.7,0,0,1-3.808,1.624,4.746,4.746,0,0,1-4.732-4.957,4.593,4.593,0,0,1,4.62-4.9,5.66,5.66,0,0,1,3.865,1.6Zm-24.978,4.509a3.856,3.856,0,0,1,3.92-3.753,3.711,3.711,0,0,1,3.893,3.753Zm-3.22,1.428a7.255,7.255,0,0,0,7.589,7.617,6.917,6.917,0,0,0,6.1-3.192l-2.016-1.513a4.769,4.769,0,0,1-4.032,2.044,4.246,4.246,0,0,1-4.537-4.285h11.005a6.8,6.8,0,0,0,.028-.756c0-4.592-2.6-7.645-7.029-7.645C295.739,575.431,292.631,578.623,292.631,583.159Zm-12.1,4.7a5.69,5.69,0,0,0,5.265,2.913c3,0,5.292-1.764,5.292-4.481,0-5.153-7.141-3.976-7.141-6.777,0-1.008.84-1.6,1.961-1.6a3.151,3.151,0,0,1,2.828,1.624l2.1-1.4a5.118,5.118,0,0,0-4.761-2.716c-2.828,0-5.012,1.568-5.012,4.145,0,5.068,7.113,4.06,7.113,6.86,0,1.176-.952,1.82-2.24,1.82a3.985,3.985,0,0,1-3.5-1.9Zm-11.929,0a5.689,5.689,0,0,0,5.265,2.913c3,0,5.292-1.764,5.292-4.481,0-5.153-7.141-3.976-7.141-6.777,0-1.008.84-1.6,1.96-1.6a3.152,3.152,0,0,1,2.829,1.624l2.1-1.4a5.117,5.117,0,0,0-4.76-2.716c-2.828,0-5.013,1.568-5.013,4.145,0,5.068,7.113,4.06,7.113,6.86,0,1.176-.952,1.82-2.241,1.82a3.985,3.985,0,0,1-3.5-1.9Zm-7-5.769h-5.433l2.717-7.925Zm.867,2.6,2.017,5.713h3.136l-7.141-19.6h-3.22l-7.141,19.6h3.136L255.3,584.7Z" transform="translate(-30.279 -7.217)" fill="#fff"/>
  </g>
</svg>
