<svg id="asseco-logo" xmlns="http://www.w3.org/2000/svg" width="181.866" height="20" viewBox="0 0 181.866 20">
  <path id="Path_80" data-name="Path 80" d="M183.881,1.773A1.614,1.614,0,0,0,182.114.011h-7.645c-4.11,0-5.884,1.757-5.884,5.882v8.234c0,1.626-.727,2.352-2.4,2.352h-9.949a1.658,1.658,0,0,0-1.766,1.778,1.637,1.637,0,0,0,1.741,1.749h9.974c4.092,0,5.928-1.761,5.928-5.88V5.893c0-1.752.634-2.351,2.355-2.351h7.645a1.623,1.623,0,0,0,1.767-1.769" transform="translate(-99.185 -0.007)" fill="#fff" fill-rule="evenodd"/>
  <path id="Path_81" data-name="Path 81" d="M23.525,0,5.88,0A5.556,5.556,0,0,0,0,5.886V14.12A5.548,5.548,0,0,0,5.88,20H20a2.519,2.519,0,0,0,2.351-2.345l0-4.118A1.705,1.705,0,0,0,20.62,11.77a1.667,1.667,0,0,0-1.8,1.763v2.94H5.88A2.53,2.53,0,0,1,3.527,14.12V5.886A2.535,2.535,0,0,1,5.88,3.531l17.645,0a2.528,2.528,0,0,1,2.355,2.351V18.238A1.739,1.739,0,0,0,27.643,20a1.621,1.621,0,0,0,1.763-1.762V5.886A5.561,5.561,0,0,0,23.525,0" fill="#fff" fill-rule="evenodd"/>
  <path id="Path_82" data-name="Path 82" d="M246.5,14.128c0,4.119,1.727,5.88,5.882,5.88h21.757a1.657,1.657,0,0,0,1.767-1.773,1.642,1.642,0,0,0-1.746-1.753H252.381c-1.766-.029-2.354-.632-2.354-2.353V5.893c0-1.759.639-2.351,2.354-2.351h17.643c1.661,0,2.353.616,2.353,2.351,0,1.763-.615,2.351-2.353,2.351H255.335a1.56,1.56,0,0,0-1.765,1.765,1.586,1.586,0,0,0,1.765,1.768h14.689c4.167,0,5.882-1.768,5.882-5.884S274.134.012,270.024.012H252.381c-4.228,0-5.882,1.763-5.882,5.881v8.234Z" transform="translate(-158.276 -0.008)" fill="#fff" fill-rule="evenodd"/>
  <path id="Path_83" data-name="Path 83" d="M338.521,14.128c0,4.119,1.729,5.88,5.882,5.88h19.768a1.657,1.657,0,0,0,1.766-1.773,1.609,1.609,0,0,0-1.743-1.753H344.4c-1.763-.029-2.355-.632-2.355-2.353V5.893c0-1.719.592-2.326,2.355-2.351h19.744a1.652,1.652,0,0,0,1.767-1.766A1.65,1.65,0,0,0,364.17.012H344.4c-4.153,0-5.882,1.761-5.882,5.881v8.234Z" transform="translate(-217.363 -0.008)" fill="#fff" fill-rule="evenodd"/>
  <path id="Path_84" data-name="Path 84" d="M425.983,14.1c0,4.12,1.731,5.91,5.88,5.91h17.644c4.152,0,5.881-1.79,5.881-5.91V5.865c0-4.116-1.729-5.854-5.881-5.854H431.863c-4.149,0-5.88,1.737-5.88,5.854Zm5.88,2.379c-1.764-.024-2.353-.662-2.353-2.379V5.865c0-1.719.589-2.3,2.353-2.322h17.644c1.763.024,2.354.631,2.354,2.351v8.2c0,1.717-.591,2.354-2.354,2.383Z" transform="translate(-273.522 -0.007)" fill="#fff" fill-rule="evenodd"/>
  <path id="Path_85" data-name="Path 85" d="M121.419,1.773A1.615,1.615,0,0,0,119.649.011H112c-4.11,0-5.884,1.757-5.884,5.882v8.234c0,1.626-.725,2.352-2.4,2.352H93.7a1.609,1.609,0,0,0-1.7,1.778,1.606,1.606,0,0,0,1.7,1.749h10.018c4.09,0,5.928-1.761,5.928-5.88V5.893c0-1.752.634-2.351,2.353-2.351h7.645a1.623,1.623,0,0,0,1.769-1.769" transform="translate(-59.077 -0.007)" fill="#fff" fill-rule="evenodd"/>
</svg>
