<svg xmlns="http://www.w3.org/2000/svg" width="17.944" height="17.152" viewBox="0 0 17.944 17.152">
  <g id="Group_1" data-name="Group 1" transform="translate(-189.028 -116.047)">
    <path id="Path_3" data-name="Path 3" d="M193.1,133.2V121.627h-3.845V133.2Zm-1.922-13.153a2.142,2.142,0,1,0-.026,0Z" fill="#fff" fill-rule="evenodd"/>
    <path id="Path_4" data-name="Path 4" d="M195.23,133.2h3.847v-6.462a2.584,2.584,0,0,1,.127-.939,2.1,2.1,0,0,1,1.972-1.407c1.392,0,1.949,1.061,1.949,2.617V133.2h3.847v-6.635c0-3.556-1.9-5.209-4.429-5.209a3.832,3.832,0,0,0-3.492,1.949h.026v-1.677H195.23c.051,1.085,0,11.572,0,11.572Z" fill="#fff" fill-rule="evenodd"/>
  </g>
</svg>
