<svg id="Group_57" data-name="Group 57" xmlns="http://www.w3.org/2000/svg" width="120" height="54.262" viewBox="0 0 120 54.262">
  <path id="Path_137" data-name="Path 137" d="M162.487,215.2v-8.286a1.4,1.4,0,0,1-1.949-1.284V189.062a1.4,1.4,0,0,1,1.949-1.285v-8.285l-3.741-2.16a3.583,3.583,0,0,0-5.374,3.1v33.827a3.583,3.583,0,0,0,5.374,3.1Z" transform="translate(-153.372 -176.854)" fill="#3f60a2"/>
  <path id="Path_138" data-name="Path 138" d="M203.133,202.154v-8.274l-9.115-5.263V196.9a1.417,1.417,0,0,1,.148.074Zm0,16.914v-8.274l-8.968,5.177a1.368,1.368,0,0,1-.148.074v8.286Z" transform="translate(-184.903 -185.98)" fill="#03a9f4"/>
  <path id="Path_139" data-name="Path 139" d="M243.781,232.011V217.349l-9.115-5.263v8.274l5.385,3.109a1.4,1.4,0,0,1,0,2.421L234.666,229v8.274Z" transform="translate(-216.436 -204.185)" fill="#57c6fa"/>
  <path id="Path_140" data-name="Path 140" d="M284.427,242.9v-.022a3.592,3.592,0,0,0-1.792-3.092l-7.324-4.228v14.662l7.324-4.228a3.594,3.594,0,0,0,1.792-3.092" transform="translate(-247.967 -222.391)" fill="#a1dffc"/>
  <path id="Path_141" data-name="Path 141" d="M342.071,382.72h.978v2.434a1.809,1.809,0,0,1,1.517-.745,2.243,2.243,0,0,1,2.225,2.468,2.28,2.28,0,0,1-2.288,2.45A1.877,1.877,0,0,1,343,388.6v.61h-.925Zm2.334,5.745a1.431,1.431,0,0,0,1.4-1.579,1.448,1.448,0,0,0-1.391-1.607,1.607,1.607,0,0,0-.009,3.186Z" transform="translate(-299.755 -336.554)" fill="#00a4e0"/>
  <path id="Path_142" data-name="Path 142" d="M366.927,397.061l.664-1.687-1.858-4.6h1.05l1.266,3.41,1.247-3.41h1.023l-2.451,6.292Z" transform="translate(-318.111 -342.798)" fill="#00a4e0"/>
  <path id="Path_143" data-name="Path 143" d="M502.693,380.992a.561.561,0,0,0-.614-.612h-2.655c-1.427,0-2.043.611-2.043,2.043v2.859c0,.564-.253.817-.834.817h-3.455a.575.575,0,0,0-.613.617.568.568,0,0,0,.6.608h3.464c1.421,0,2.059-.611,2.059-2.042v-2.859c0-.608.22-.816.817-.816h2.655a.564.564,0,0,0,.614-.614" transform="translate(-416.435 -334.739)" fill="#fff" fill-rule="evenodd"/>
  <path id="Path_144" data-name="Path 144" d="M415.037,380.376H408.91a1.93,1.93,0,0,0-2.042,2.043v2.859a1.926,1.926,0,0,0,2.042,2.04h4.9a.874.874,0,0,0,.816-.814v-1.43a.592.592,0,0,0-.6-.613.579.579,0,0,0-.625.613V386.1H408.91a.879.879,0,0,1-.817-.817V382.42a.882.882,0,0,1,.817-.819l6.127,0a.878.878,0,0,1,.818.816v4.289a.6.6,0,0,0,.613.612.562.562,0,0,0,.612-.612V382.42a1.931,1.931,0,0,0-2.042-2.044" transform="translate(-350.021 -334.736)" fill="#fff" fill-rule="evenodd"/>
  <path id="Path_145" data-name="Path 145" d="M543.483,385.284c0,1.43.6,2.042,2.042,2.042h7.555a.612.612,0,0,0,.008-1.225h-7.563c-.613-.01-.817-.22-.817-.817v-2.859c0-.611.222-.816.817-.816h6.127c.577,0,.817.213.817.816s-.214.816-.817.816h-5.1a.541.541,0,0,0-.613.613.55.55,0,0,0,.613.614h5.1c1.447,0,2.042-.614,2.042-2.043s-.615-2.042-2.042-2.042h-6.127c-1.468,0-2.042.612-2.042,2.042Z" transform="translate(-456 -334.741)" fill="#fff" fill-rule="evenodd"/>
  <path id="Path_146" data-name="Path 146" d="M594.483,385.284c0,1.43.6,2.042,2.042,2.042h6.865a.575.575,0,0,0,.613-.616.559.559,0,0,0-.605-.609h-6.873c-.612-.01-.818-.22-.818-.817v-2.859c0-.6.206-.808.818-.816h6.856a.613.613,0,0,0,.008-1.226h-6.864c-1.442,0-2.042.612-2.042,2.042Z" transform="translate(-495.564 -334.741)" fill="#fff" fill-rule="evenodd"/>
  <path id="Path_147" data-name="Path 147" d="M642.956,385.273c0,1.431.6,2.052,2.042,2.052h6.127c1.442,0,2.042-.621,2.042-2.052v-2.859c0-1.43-.6-2.032-2.042-2.032H645c-1.441,0-2.042.6-2.042,2.032ZM645,386.1c-.613-.009-.817-.23-.817-.826v-2.859c0-.6.2-.8.817-.806h6.127c.612.008.818.219.818.816v2.849c0,.6-.206.818-.818.827Z" transform="translate(-533.167 -334.741)" fill="#fff" fill-rule="evenodd"/>
  <path id="Path_148" data-name="Path 148" d="M468.073,380.992a.561.561,0,0,0-.614-.612H464.8c-1.427,0-2.043.611-2.043,2.043v2.859c0,.564-.252.817-.833.817h-3.479a.613.613,0,0,0,0,1.225h3.479c1.42,0,2.059-.611,2.059-2.042v-2.859c0-.608.22-.816.817-.816h2.655a.563.563,0,0,0,.614-.614" transform="translate(-389.578 -334.739)" fill="#fff" fill-rule="evenodd"/>
  <path id="Path_149" data-name="Path 149" d="M343.979,239.289h14.149v-3.975h-9.738V211.467h-4.412Z" transform="translate(-301.235 -203.705)" fill="#fff"/>
  <path id="Path_150" data-name="Path 150" d="M453.226,224.355a5.472,5.472,0,0,1,5.565-5.326,5.267,5.267,0,0,1,5.525,5.326Zm-4.571,2.027c0,6.28,4.293,10.811,10.771,10.811a9.818,9.818,0,0,0,8.665-4.531l-2.862-2.146a6.767,6.767,0,0,1-5.723,2.9c-3.7,0-6.359-2.384-6.439-6.081h15.62a9.694,9.694,0,0,0,.04-1.073c0-6.518-3.7-10.851-9.976-10.851C453.067,215.412,448.655,219.943,448.655,226.382Zm-9.062,10.294,7.631-20.747h-4.531l-5.525,16.057L431.6,215.929h-4.61l7.71,20.747ZM419.482,210.8a2.7,2.7,0,1,0,2.7-2.7,2.68,2.68,0,0,0-2.7,2.7m.556,25.874h4.332V215.929h-4.332Z" transform="translate(-359.807 -201.092)" fill="#fff"/>
</svg>
