<svg id="Group_56" data-name="Group 56" xmlns="http://www.w3.org/2000/svg" width="120" height="55.394" viewBox="0 0 120 55.394">
  <path id="Path_126" data-name="Path 126" d="M345.03,381.158h.814v2.026a1.507,1.507,0,0,1,1.263-.621,1.867,1.867,0,0,1,1.853,2.055,1.9,1.9,0,0,1-1.9,2.04,1.563,1.563,0,0,1-1.256-.605v.508h-.77Zm1.943,4.783a1.191,1.191,0,0,0,1.166-1.315,1.205,1.205,0,0,0-1.158-1.337,1.338,1.338,0,0,0-.008,2.652Z" transform="translate(-309.311 -332.505)" fill="#e52129"/>
  <path id="Path_127" data-name="Path 127" d="M359.835,391.094l.553-1.4-1.547-3.833h.874l1.054,2.839,1.038-2.839h.852l-2.04,5.238Z" transform="translate(-318.705 -335.7)" fill="#e52129"/>
  <path id="Path_128" data-name="Path 128" d="M423.486,307.118h3.673V287.265h5.823v-3.309h-15.32v3.309h5.823Zm-8.636-5.2a10.132,10.132,0,0,1-6.088,2.184c-4.963,0-8.206-3.772-8.206-8.57s3.342-8.57,8.173-8.57a9.837,9.837,0,0,1,5.824,2.051l1.092-3.243a11.983,11.983,0,1,0-6.982,21.772,12.043,12.043,0,0,0,7.279-2.415Zm-26.074-4.632h-6.419l3.209-9.364Zm1.026,3.077,2.382,6.75h3.706l-8.437-23.162h-3.805l-8.437,23.162h3.706l2.415-6.75Zm-22.831-10.952a5.624,5.624,0,0,0-4.864,2.68v-2.25h-3.54v17.272h3.607V296.7a3.722,3.722,0,0,1,3.772-4.037c1.985,0,3.474,1.39,3.474,3.772v10.688h3.573v-10.39C372.993,292.956,371.438,289.416,366.971,289.416Zm-16.544,17.7H354.1V283.956h-3.673Z" transform="translate(-312.982 -266.1)" fill="#fff"/>
  <path id="Path_129" data-name="Path 129" d="M256.571,239.7c0-4.461-4.043-8.077-9.029-8.077s-9.029,3.617-9.029,8.077v5.571a13.915,13.915,0,0,1,18.058,0Zm-9.029,30.622a14.163,14.163,0,0,1-11.609-22.312v-8.265c0-5.91,5.2-10.7,11.609-10.7s11.609,4.791,11.609,10.7v8.265a14.163,14.163,0,0,1-11.609,22.312Z" transform="translate(-233.353 -229.042)" fill="#e52129" fill-rule="evenodd"/>
  <path id="Path_130" data-name="Path 130" d="M441.325,380.3a.467.467,0,0,0-.511-.509H438.6c-1.188,0-1.7.508-1.7,1.7v2.38c0,.47-.21.68-.694.68h-2.876a.479.479,0,0,0-.51.514.473.473,0,0,0,.5.506h2.883c1.183,0,1.714-.509,1.714-1.7v-2.38c0-.507.183-.68.681-.68h2.21a.469.469,0,0,0,.511-.511" transform="translate(-369.024 -331.576)" fill="#fff" fill-rule="evenodd"/>
  <path id="Path_131" data-name="Path 131" d="M389.653,379.79h-5.1a1.606,1.606,0,0,0-1.7,1.7v2.381a1.6,1.6,0,0,0,1.7,1.7h4.081a.727.727,0,0,0,.679-.678V383.7a.493.493,0,0,0-.5-.51.482.482,0,0,0-.521.51v.85h-3.741a.732.732,0,0,1-.68-.68v-2.381a.734.734,0,0,1,.68-.681l5.1,0a.731.731,0,0,1,.681.68v3.571a.5.5,0,0,0,.51.51.469.469,0,0,0,.51-.51v-3.571a1.607,1.607,0,0,0-1.7-1.7" transform="translate(-335.036 -331.574)" fill="#fff" fill-rule="evenodd"/>
  <path id="Path_132" data-name="Path 132" d="M462.593,383.875c0,1.191.5,1.7,1.7,1.7h6.29a.51.51,0,0,0,.007-1.02h-6.3c-.51-.008-.681-.183-.681-.68v-2.38c0-.509.185-.68.681-.68h5.1c.48,0,.68.178.68.68s-.178.68-.68.68h-4.247a.45.45,0,0,0-.51.51.458.458,0,0,0,.51.511h4.247c1.2,0,1.7-.511,1.7-1.7s-.512-1.7-1.7-1.7h-5.1c-1.222,0-1.7.51-1.7,1.7Z" transform="translate(-389.272 -331.577)" fill="#fff" fill-rule="evenodd"/>
  <path id="Path_133" data-name="Path 133" d="M492.361,383.875c0,1.191.5,1.7,1.7,1.7h5.715a.479.479,0,0,0,.51-.512.465.465,0,0,0-.5-.507h-5.721c-.51-.008-.681-.183-.681-.68v-2.38c0-.5.171-.673.681-.68h5.708a.51.51,0,0,0,.007-1.02h-5.714c-1.2,0-1.7.509-1.7,1.7Z" transform="translate(-409.519 -331.577)" fill="#fff" fill-rule="evenodd"/>
  <path id="Path_134" data-name="Path 134" d="M520.654,383.865c0,1.191.5,1.708,1.7,1.708h5.1c1.2,0,1.7-.517,1.7-1.708v-2.38c0-1.19-.5-1.692-1.7-1.692h-5.1c-1.2,0-1.7.5-1.7,1.692Zm1.7.688c-.51-.007-.68-.192-.68-.688v-2.38c0-.5.171-.664.68-.671h5.1c.51.007.681.182.681.679v2.372c0,.5-.171.681-.681.689Z" transform="translate(-428.763 -331.576)" fill="#fff" fill-rule="evenodd"/>
  <path id="Path_135" data-name="Path 135" d="M421.117,380.3a.466.466,0,0,0-.511-.509H418.4c-1.188,0-1.7.508-1.7,1.7v2.38c0,.47-.21.68-.693.68h-2.9a.51.51,0,0,0,0,1.019H416c1.182,0,1.714-.509,1.714-1.7v-2.38c0-.507.183-.68.68-.68h2.21a.469.469,0,0,0,.511-.511" transform="translate(-355.279 -331.576)" fill="#fff" fill-rule="evenodd"/>
  <path id="Path_136" data-name="Path 136" d="M262.2,306.837a.869.869,0,0,1-.084.135.791.791,0,0,1-1.34-.134l-3.433-3.694a.973.973,0,0,1,0-1.308.817.817,0,0,1,1.213,0l2.932,3.154,7.326-6.939a.819.819,0,0,1,1.215,0,.978.978,0,0,1,0,1.309Z" transform="translate(-249.501 -275.796)" fill="#fff" fill-rule="evenodd"/>
</svg>
