<svg id="Group_51" data-name="Group 51" xmlns="http://www.w3.org/2000/svg" width="111.208" height="60" viewBox="0 0 111.208 60">
  <path id="Path_100" data-name="Path 100" d="M147.611,361.825c-.09.265-.229,2.578-.256,3a32.306,32.306,0,0,0,2.277,14.139,31.258,31.258,0,0,0,3.132,5.895l.893,1.205c.073.095.078.146.161.263a32.979,32.979,0,0,0,7.662,7.218,36.779,36.779,0,0,0,4.2,2.415,35.853,35.853,0,0,0,3.189-1.763c.352-.214.671-.439,1.007-.652a33.811,33.811,0,0,0,3.489-2.693,35.9,35.9,0,0,0,3.44-3.6,31.882,31.882,0,0,0,4.921-8.294,33.742,33.742,0,0,0,1.57-5.03,32.317,32.317,0,0,0,.76-5.838c.057-1.088-.011-2.17-.05-3.232l-.259-3.031-8.289-2.725-.012,2.75,5.762,1.89a28.943,28.943,0,0,1,.152,4.781,29.685,29.685,0,0,1-1.648,8.227,28.937,28.937,0,0,1-1.486,3.464,29.968,29.968,0,0,1-3.971,5.918,30.859,30.859,0,0,1-2.434,2.51,29.9,29.9,0,0,1-5.787,4.106c-.474.27-.361.19-.832-.069a29.422,29.422,0,0,1-11.714-11.769,30.183,30.183,0,0,1-2.48-6.172c-.3-1.189-.22-.9-.495-2.144-.486-2.2-.81-7.012-.362-8.851l.077-.018,5.614-1.859.015-2.768Z" transform="translate(-147.291 -351.976)" fill="#009adf" fill-rule="evenodd"/>
  <path id="Path_101" data-name="Path 101" d="M187.236,372.671a.441.441,0,0,1-.441-.441v-2.647a.441.441,0,1,1,.882,0v2.647a.441.441,0,0,1-.441.441Zm4.853-4.411a.883.883,0,0,0-.882-.883h-7.941a.883.883,0,0,0-.882.883v5.294a.882.882,0,0,0,.882.882h7.941a.882.882,0,0,0,.882-.882V368.26Zm-1.765-3.088a3.088,3.088,0,1,0-6.176,0V366.5h6.176v-1.323Zm.882,10.146a1.765,1.765,0,0,0,1.764-1.764V368.26a1.765,1.765,0,0,0-1.764-1.765v-1.323a3.97,3.97,0,0,0-7.941,0V366.5h0a1.765,1.765,0,0,0-1.764,1.765v5.294a1.764,1.764,0,0,0,1.764,1.764Z" transform="translate(-168.849 -353.297)" fill="#009adf" fill-rule="evenodd"/>
  <path id="Path_102" data-name="Path 102" d="M196.039,342.556a.562.562,0,1,1-.562.562A.562.562,0,0,1,196.039,342.556Z" transform="translate(-177.656 -341.547)" fill="#fff" fill-rule="evenodd"/>
  <path id="Path_103" data-name="Path 103" d="M175.587,339.828h11.655a3.333,3.333,0,0,1,3.323,3.324V366.43a3.333,3.333,0,0,1-3.323,3.323H175.587a3.333,3.333,0,0,1-3.324-3.323V343.152a3.334,3.334,0,0,1,3.324-3.324Zm2.975,26.7a.305.305,0,0,0-.3.3v1.122a.305.305,0,0,0,.3.3h5.706a.305.305,0,0,0,.3-.3v-1.122a.305.305,0,0,0-.3-.3Zm2.849-25.7a.562.562,0,1,0,.562.562.562.562,0,0,0-.562-.562Zm-7.832,1.995v22.286h15.654V342.832Z" transform="translate(-163.027 -339.828)" fill="#009adf" fill-rule="evenodd"/>
  <path id="Path_104" data-name="Path 104" d="M264.431,487.791a1.264,1.264,0,0,0,1.237-1.4,1.28,1.28,0,0,0-1.229-1.42,1.42,1.42,0,0,0-.008,2.815Zm-2.062-5.076h.864v2.15a1.6,1.6,0,0,1,1.341-.658,1.982,1.982,0,0,1,1.967,2.181,2.015,2.015,0,0,1-2.022,2.165,1.66,1.66,0,0,1-1.333-.642v.539h-.817Z" transform="translate(-219.809 -429.87)" fill="#009adf" fill-rule="evenodd"/>
  <path id="Path_105" data-name="Path 105" d="M276.1,492.587l.587-1.491-1.642-4.069h.928l1.119,3.014,1.1-3.014h.9l-2.165,5.56Z" transform="translate(-227.798 -432.587)" fill="#009adf" fill-rule="evenodd"/>
  <path id="Path_106" data-name="Path 106" d="M351.985,482a.5.5,0,0,0-.543-.541H349.1c-1.261,0-1.805.54-1.805,1.805v2.527c0,.5-.223.722-.736.722H343.5a.508.508,0,0,0-.541.545.5.5,0,0,0,.534.537h3.061c1.256,0,1.819-.54,1.819-1.8v-2.527c0-.537.195-.721.722-.721h2.346A.5.5,0,0,0,351.985,482Z" transform="translate(-270.594 -429.08)" fill="#fff" fill-rule="evenodd"/>
  <path id="Path_107" data-name="Path 107" d="M304.307,481.459h-5.415a1.705,1.705,0,0,0-1.8,1.805v2.527a1.7,1.7,0,0,0,1.8,1.8h4.332a.772.772,0,0,0,.721-.719v-1.263a.523.523,0,0,0-.529-.541.512.512,0,0,0-.553.541v.9h-3.971a.777.777,0,0,1-.722-.722v-2.527a.779.779,0,0,1,.722-.723h5.415a.776.776,0,0,1,.723.722v3.79a.533.533,0,0,0,.541.541.5.5,0,0,0,.541-.541v-3.79A1.706,1.706,0,0,0,304.307,481.459Z" transform="translate(-241.687 -429.078)" fill="#fff" fill-rule="evenodd"/>
  <path id="Path_108" data-name="Path 108" d="M370.288,485.794c0,1.264.53,1.8,1.8,1.8h6.676a.541.541,0,0,0,.007-1.082h-6.683c-.542-.009-.723-.194-.723-.722v-2.527c0-.54.2-.722.723-.722h5.414c.51,0,.722.189.722.722s-.189.722-.722.722H373a.478.478,0,0,0-.541.541.486.486,0,0,0,.541.542h4.508c1.279,0,1.8-.542,1.8-1.805s-.543-1.8-1.8-1.8h-5.414c-1.3,0-1.8.541-1.8,1.8Z" transform="translate(-287.815 -429.081)" fill="#fff" fill-rule="evenodd"/>
  <path id="Path_109" data-name="Path 109" d="M397.615,485.794c0,1.264.53,1.8,1.8,1.8h6.066a.508.508,0,0,0,.542-.544.494.494,0,0,0-.535-.538h-6.073c-.541-.009-.722-.194-.722-.722v-2.527c0-.527.182-.714.722-.722h6.059a.541.541,0,0,0,.007-1.083h-6.066c-1.274,0-1.8.54-1.8,1.8Z" transform="translate(-305.036 -429.081)" fill="#fff" fill-rule="evenodd"/>
  <path id="Path_110" data-name="Path 110" d="M425.391,486.514c-.541-.008-.722-.2-.722-.73v-2.526c0-.527.181-.7.722-.712h5.414c.541.007.723.194.723.721v2.518c0,.527-.182.722-.723.731Zm-1.8-.73c0,1.264.531,1.813,1.8,1.813h5.414c1.274,0,1.8-.549,1.8-1.813v-2.526c0-1.263-.531-1.8-1.8-1.8h-5.414c-1.273,0-1.8.533-1.8,1.8Z" transform="translate(-321.402 -429.08)" fill="#fff" fill-rule="evenodd"/>
  <path id="Path_111" data-name="Path 111" d="M333.436,482a.5.5,0,0,0-.543-.541h-2.346c-1.261,0-1.805.54-1.805,1.805v2.527c0,.5-.223.722-.736.722h-3.074a.541.541,0,0,0,0,1.082h3.074c1.255,0,1.819-.54,1.819-1.8v-2.527c0-.537.195-.721.722-.721h2.346A.5.5,0,0,0,333.436,482Z" transform="translate(-258.905 -429.08)" fill="#fff" fill-rule="evenodd"/>
  <path id="Path_112" data-name="Path 112" d="M263.05,413.041a7.988,7.988,0,0,0,7.937,5.549c4.847,0,7.832-3.091,7.832-7.2,0-7.727-11.134-6.849-11.134-11.7,0-1.686,1.229-3.02,3.407-3.02a4.432,4.432,0,0,1,4.109,2.88l3.231-1.44a7.444,7.444,0,0,0-7.27-5.022c-4.531,0-7.376,2.81-7.376,6.638,0,7.9,11.063,6.743,11.063,11.941,0,2.072-1.475,3.3-3.688,3.3a4.958,4.958,0,0,1-4.812-3.477l-3.3,1.546Zm30.766,5.092h4.215l-6.638-9.412,6.251-8.921h-4.355l-4.074,6.217-4.074-6.217h-4.355l6.251,8.921-6.638,9.412h4.215l4.6-6.568,4.6,6.568Zm5.479-5.092a7.988,7.988,0,0,0,7.938,5.549c4.847,0,7.832-3.091,7.832-7.2,0-7.727-11.133-6.849-11.133-11.7,0-1.686,1.229-3.02,3.407-3.02a4.432,4.432,0,0,1,4.109,2.88l3.231-1.44a7.444,7.444,0,0,0-7.27-5.022c-4.531,0-7.375,2.81-7.375,6.638,0,7.9,11.063,6.743,11.063,11.941,0,2.072-1.475,3.3-3.688,3.3A4.959,4.959,0,0,1,302.6,411.5Z" transform="translate(-220.238 -373.393)" fill="#fff" fill-rule="evenodd"/>
</svg>
