<svg xmlns="http://www.w3.org/2000/svg" width="201.876" height="58.038" viewBox="0 0 201.876 58.038">
  <g id="Layer_x0020_1" transform="translate(-1909.24 -3004.81)">
    <g id="_1268075680896" transform="translate(1909.24 3004.81)">
      <g id="Group_541" data-name="Group 541" transform="translate(45.969 19.808)">
        <path id="Path_1374" data-name="Path 1374" d="M3705.647,3792.439h-3.417v-2.51h9.664v2.51h-3.47v15.27H3705.7v-15.27Z" transform="translate(-3702.229 -3789.609)" fill="#4a4f55" fill-rule="evenodd"/>
        <path id="Path_1375" data-name="Path 1375" d="M4210.36,3789.929h2.723v7.422h3.9v-7.422h2.724v17.78h-2.724v-7.848h-3.9v7.848h-2.723Z" transform="translate(-4197.332 -3789.609)" fill="#4a4f55" fill-rule="evenodd"/>
        <path id="Path_1376" data-name="Path 1376" d="M4753.9,3789.929h2.724v17.78H4753.9Z" transform="translate(-4726.937 -3789.609)" fill="#4a4f55" fill-rule="evenodd"/>
        <path id="Path_1377" data-name="Path 1377" d="M5041.29,3789.929h2.776l4.485,11.052v-11.052h2.616v17.78h-2.455l-4.806-11.853v11.853h-2.616Z" transform="translate(-5006.959 -3789.609)" fill="#4a4f55" fill-rule="evenodd"/>
        <path id="Path_1378" data-name="Path 1378" d="M5605.062,3793.971a3.65,3.65,0,0,1-3.311,1.762,4.009,4.009,0,0,1-3.683-2.082c-.588-1.121-.749-2.3-.749-4.752v-4.912c0-2.83.214-3.791,1.015-4.912a4.445,4.445,0,0,1,3.738-1.655,4.363,4.363,0,0,1,4.165,2.349,8.135,8.135,0,0,1,.641,3.684h-2.723c0-2.4-.641-3.471-2.083-3.471a1.7,1.7,0,0,0-1.6.908,4.9,4.9,0,0,0-.374,2.563v5.446a9.426,9.426,0,0,0,.267,2.883,1.91,1.91,0,0,0,1.869,1.335c1.442,0,2.029-1.015,2.029-3.524v-.694h-2.243v-2.243h5.02v8.81h-1.388Z" transform="translate(-5548.732 -3777.419)" fill="#4a4f55" fill-rule="evenodd"/>
        <path id="Path_1379" data-name="Path 1379" d="M6126.827,3794.1c.32,2.082,1.281,3.2,2.723,3.2a1.934,1.934,0,0,0,2.029-2.029c0-1.121-.534-1.815-2.616-3.47-2.457-1.976-2.564-2.029-3.258-2.884a4.73,4.73,0,0,1-.961-2.936,4.337,4.337,0,0,1,4.646-4.378c2.509,0,4.217,1.5,4.965,4.432l-2.616.747c-.428-1.708-1.229-2.616-2.349-2.616a1.725,1.725,0,0,0-1.762,1.815,2.613,2.613,0,0,0,.748,1.762,12.316,12.316,0,0,0,2.348,1.922,13.493,13.493,0,0,1,2.617,2.4,5.347,5.347,0,0,1,1.121,3.257c0,2.67-1.976,4.538-4.858,4.538-3.042,0-4.806-1.655-5.393-5.019Z" transform="translate(-6062.115 -3781.503)" fill="#4a4f55" fill-rule="evenodd"/>
      </g>
      <g id="Group_542" data-name="Group 542" transform="translate(127.98 19.862)">
        <path id="Path_1380" data-name="Path 1380" d="M6903.646,3794.1c.319,2.082,1.281,3.2,2.723,3.2a1.934,1.934,0,0,0,2.029-2.029c0-1.121-.534-1.815-2.617-3.47-2.456-1.976-2.562-2.029-3.256-2.884a4.725,4.725,0,0,1-.962-2.936,4.337,4.337,0,0,1,4.646-4.378c2.509,0,4.218,1.5,4.965,4.432l-2.616.747c-.428-1.708-1.228-2.616-2.349-2.616a1.725,1.725,0,0,0-1.762,1.815,2.614,2.614,0,0,0,.748,1.762,12.306,12.306,0,0,0,2.349,1.922,13.509,13.509,0,0,1,2.616,2.4,5.335,5.335,0,0,1,1.122,3.257c0,2.67-1.976,4.538-4.859,4.538-3.043,0-4.806-1.655-5.393-5.019l2.616-.748Z" transform="translate(-6901.029 -3781.557)" fill="#4a4f55" fill-rule="evenodd"/>
        <path id="Path_1381" data-name="Path 1381" d="M7460.548,3791.907a6.666,6.666,0,0,1-1.015,4.218,4.619,4.619,0,0,1-3.844,1.708,4.481,4.481,0,0,1-3.845-1.708,6.924,6.924,0,0,1-1.014-4.218v-6.461a6.665,6.665,0,0,1,1.014-4.218,5.179,5.179,0,0,1,7.688,0,6.915,6.915,0,0,1,1.015,4.218Zm-6.995-.054a5.694,5.694,0,0,0,.321,2.4,2.1,2.1,0,0,0,3.523,0,4.8,4.8,0,0,0,.321-2.4V3785.5a4.8,4.8,0,0,0-.321-2.4,2.1,2.1,0,0,0-3.523,0,4.944,4.944,0,0,0-.321,2.4Z" transform="translate(-7436.735 -3779.52)" fill="#4a4f55" fill-rule="evenodd"/>
        <path id="Path_1382" data-name="Path 1382" d="M7998.593,3789.929h2.723v15.27h5.445v2.51h-8.222v-17.78Z" transform="translate(-7970.401 -3789.662)" fill="#4a4f55" fill-rule="evenodd"/>
        <path id="Path_1383" data-name="Path 1383" d="M8390.05,3789.929h2.828l2.67,13.508,2.35-13.508h2.776l-3.418,17.78h-3.416Z" transform="translate(-8351.874 -3789.662)" fill="#4a4f55" fill-rule="evenodd"/>
        <path id="Path_1384" data-name="Path 1384" d="M8948.169,3789.929h8.063v2.51h-5.285v4.7h3.9v2.51h-3.9v5.5h5.285v2.51h-8.062Z" transform="translate(-8895.685 -3789.662)" fill="#4a4f55" fill-rule="evenodd"/>
        <path id="Path_1385" data-name="Path 1385" d="M9408.41,3789.929h4.271a4.618,4.618,0,0,1,5.126,5.073c0,2.242-.8,3.791-2.4,4.592l2.616,8.062h-2.885l-2.3-7.261h-1.655v7.314h-2.723V3789.93h-.053Zm3.791,7.956a2.957,2.957,0,0,0,2.136-4.806c-.427-.427-.962-.534-2.136-.534h-1.016v5.393h1.016v-.053Z" transform="translate(-9344.125 -3789.662)" fill="#4a4f55" fill-rule="evenodd"/>
      </g>
      <path id="Path_1386" data-name="Path 1386" d="M3146.041,3706.25l-3.951,3.524,4.218,3.791,3.951-3.524h0v-7.582Z" transform="translate(-3110.482 -3684.573)" fill="#4a4f55" fill-rule="evenodd"/>
      <path id="Path_1387" data-name="Path 1387" d="M1929.1,3012.391v-7.582L1909.24,3022.7h0l4.218,3.791Z" transform="translate(-1909.24 -3004.809)" fill="#4a4f55" fill-rule="evenodd"/>
      <path id="Path_1388" data-name="Path 1388" d="M2683.94,3004.809v7.582l15.7,14.1,4.218-3.791h0Z" transform="translate(-2664.078 -3004.809)" fill="#009fdc" fill-rule="evenodd"/>
      <path id="Path_1389" data-name="Path 1389" d="M2683.94,4149.983l7.528-6.728v-7.635l-7.528,6.781Z" transform="translate(-2664.078 -4106.628)" fill="#4a4f55" fill-rule="evenodd"/>
      <path id="Path_1390" data-name="Path 1390" d="M1917.355,4139.411l-4.218-3.791-3.9,3.576h0l4.218,3.792Z" transform="translate(-1909.24 -4106.628)" fill="#4a4f55" fill-rule="evenodd"/>
      <path id="Path_1391" data-name="Path 1391" d="M2397.838,3577.51l-7.528,6.727v7.581l7.528-6.727Z" transform="translate(-2377.976 -3562.827)" fill="#4a4f55" fill-rule="evenodd"/>
      <path id="Path_1392" data-name="Path 1392" d="M1913.458,4278.94l-4.218-3.791v7.583h0l19.862,17.886v-7.582Z" transform="translate(-1909.24 -4242.58)" fill="#009fdc" fill-rule="evenodd"/>
      <path id="Path_1393" data-name="Path 1393" d="M2699.9,3591.818l-4.218-3.79-11.746-10.518v7.581l7.528,6.727,4.218,3.791,3.951,3.578,4.218-3.791h0Z" transform="translate(-2664.078 -3562.827)" fill="#009fdc" fill-rule="evenodd"/>
      <path id="Path_1394" data-name="Path 1394" d="M2699.637,4278.94l-15.7,14.1v7.582l19.915-17.886h0v-7.583Z" transform="translate(-2664.078 -4242.58)" fill="#4a4f55" fill-rule="evenodd"/>
      <path id="Path_1395" data-name="Path 1395" d="M1921.574,3713.565l-4.218-3.791-3.9-3.524-4.218-3.791v7.582h0l3.9,3.524,4.218,3.791,11.746,10.572v-7.582Z" transform="translate(-1909.24 -3684.573)" fill="#009fdc" fill-rule="evenodd"/>
      <g id="Group_544" data-name="Group 544" transform="translate(90.843 44.963)">
        <g id="Group_543" data-name="Group 543" transform="translate(45.395)">
          <path id="Path_1396" data-name="Path 1396" d="M8011.993,4759.245a.577.577,0,0,0-.637-.626H8008.6c-1.483,0-2.122.625-2.122,2.091v2.927c0,.578-.263.836-.867.836h-3.59a.593.593,0,0,0-.638.631.587.587,0,0,0,.629.624h3.6c1.477,0,2.141-.627,2.141-2.091v-2.927c0-.623.228-.834.849-.834h2.761A.581.581,0,0,0,8011.993,4759.245Z" transform="translate(-7981.426 -4758.618)" fill="#fff" fill-rule="evenodd"/>
          <path id="Path_1397" data-name="Path 1397" d="M7231.62,4758.569l-6.369,0a1.988,1.988,0,0,0-2.122,2.074v2.96a1.987,1.987,0,0,0,2.122,2.073h5.094a.9.9,0,0,0,.849-.833v-1.464a.612.612,0,0,0-.624-.627.6.6,0,0,0-.649.627v1.045h-4.67a.907.907,0,0,1-.85-.836v-2.927a.908.908,0,0,1,.85-.836h6.369a.906.906,0,0,1,.849.835v4.391a.623.623,0,0,0,.637.626.581.581,0,0,0,.636-.626v-4.391a1.992,1.992,0,0,0-2.123-2.092Z" transform="translate(-7223.13 -4758.569)" fill="#fff" fill-rule="evenodd"/>
          <path id="Path_1398" data-name="Path 1398" d="M8465.04,4763.637c0,1.464.623,2.09,2.123,2.09h7.852a.6.6,0,0,0,.639-.63.588.588,0,0,0-.63-.624h-7.86c-.639-.01-.851-.225-.851-.836v-2.927c0-.625.231-.835.851-.835h6.367c.6,0,.849.218.849.835s-.223.835-.849.835h-5.3a.558.558,0,0,0-.636.627.567.567,0,0,0,.636.628h5.3c1.5,0,2.123-.628,2.123-2.091s-.641-2.091-2.123-2.091h-6.367c-1.525,0-2.123.626-2.123,2.091Z" transform="translate(-8433.2 -4758.618)" fill="#fff" fill-rule="evenodd"/>
          <path id="Path_1399" data-name="Path 1399" d="M8928.668,4763.637c0,1.464.625,2.09,2.123,2.09h7.135a.594.594,0,0,0,.638-.63.576.576,0,0,0-.629-.624h-7.144c-.637-.01-.852-.225-.852-.836v-2.927c0-.611.215-.827.852-.835h7.127a.628.628,0,1,0,.008-1.255h-7.135c-1.5,0-2.123.626-2.123,2.091Z" transform="translate(-8884.94 -4758.618)" fill="#fff" fill-rule="evenodd"/>
          <path id="Path_1400" data-name="Path 1400" d="M9371.451,4764.481c-.637-.008-.85-.234-.85-.845v-2.926c0-.611.213-.817.85-.825h6.368c.637.008.849.225.849.834v2.917c0,.61-.212.837-.849.847Zm-2.121-.845c0,1.464.625,2.1,2.121,2.1h6.368c1.5,0,2.121-.636,2.121-2.1v-2.926c0-1.463-.623-2.081-2.121-2.081h-6.368c-1.5,0-2.121.617-2.121,2.081Z" transform="translate(-9314.305 -4758.628)" fill="#fff" fill-rule="evenodd"/>
          <path id="Path_1401" data-name="Path 1401" d="M7697.285,4759.245a.579.579,0,0,0-.639-.626h-2.759c-1.483,0-2.124.625-2.124,2.091v2.927c0,.578-.262.836-.865.836h-3.616a.627.627,0,0,0,0,1.254h3.616c1.476,0,2.139-.627,2.139-2.091v-2.927c0-.623.229-.834.85-.834h2.759A.582.582,0,0,0,7697.285,4759.245Z" transform="translate(-7674.785 -4758.618)" fill="#fff" fill-rule="evenodd"/>
        </g>
        <path id="Path_1402" data-name="Path 1402" d="M5456.884,4859.615h.851l-.254-4.515h-1.172l-.69,1.8c-.187.516-.361,1.092-.495,1.581h-.027c-.114-.5-.269-1.058-.436-1.574l-.643-1.809h-1.191l-.3,4.515h.817l.107-1.849c.033-.636.059-1.4.086-2.017h.014c.127.59.3,1.219.5,1.836l.649,1.976h.684l.724-1.99c.228-.623.435-1.252.609-1.822h.013c0,.65.034,1.381.06,1.99l.087,1.875Zm4.514-2.679h-1.909V4855.8h2.022v-.7h-2.887v4.515h2.994v-.7h-2.13v-1.286h1.909Zm5.245,2.679h.85l-.253-4.515h-1.173l-.689,1.8c-.188.516-.363,1.092-.5,1.581h-.027c-.114-.5-.268-1.058-.435-1.574l-.643-1.809h-1.193l-.294,4.515h.817l.107-1.849c.033-.636.06-1.4.087-2.017h.013c.127.59.3,1.219.5,1.836l.65,1.976h.684l.722-1.99c.228-.623.435-1.252.61-1.822h.013c0,.65.033,1.381.062,1.99l.086,1.875Zm1.741-.013a9.467,9.467,0,0,0,1.106.06,2.832,2.832,0,0,0,1.781-.409,1.159,1.159,0,0,0-.476-2.07v-.013a1.043,1.043,0,0,0,.777-.965.957.957,0,0,0-.516-.871,2.441,2.441,0,0,0-1.359-.274,8.03,8.03,0,0,0-1.313.1Zm.857-3.872a2.844,2.844,0,0,1,.543-.039c.542,0,.917.167.917.608,0,.369-.328.637-.971.637h-.489Zm0,1.822h.476c.622,0,1.111.2,1.111.724,0,.569-.522.75-1.078.75a3.308,3.308,0,0,1-.509-.027Zm6.049-.616h-1.909V4855.8h2.022v-.7h-2.887v4.515h2.994v-.7h-2.129v-1.286h1.909Zm.984,2.679h.857v-1.849h.5c.509.013.736.208.884.8a5.479,5.479,0,0,0,.328,1.052h.877a11.857,11.857,0,0,1-.381-1.279,1.185,1.185,0,0,0-.65-.851v-.02a1.2,1.2,0,0,0,.857-1.125,1.126,1.126,0,0,0-.4-.9,2.29,2.29,0,0,0-1.487-.375,9.341,9.341,0,0,0-1.38.1Zm.857-3.865a2.6,2.6,0,0,1,.6-.047c.556,0,.958.208.958.717,0,.442-.369.723-.971.723h-.59Z" transform="translate(-5452.53 -4852.587)" fill="#fff"/>
        <path id="Path_1403" data-name="Path 1403" d="M6589.3,4853.49a2.3,2.3,0,0,0-2.392,2.384,2.212,2.212,0,0,0,2.331,2.291,2.283,2.283,0,0,0,2.411-2.378A2.215,2.215,0,0,0,6589.3,4853.49Zm-.014.67a1.682,1.682,0,1,1-1.466,1.694,1.507,1.507,0,0,1,1.466-1.694Zm3.116,3.925h.863v-1.91h1.855v-.7h-1.855v-1.212h2v-.7H6592.4Z" transform="translate(-6557.826 -4851.056)" fill="#fff"/>
      </g>
    </g>
  </g>
</svg>
