<svg id="Group_55" data-name="Group 55" xmlns="http://www.w3.org/2000/svg" width="120" height="32.328" viewBox="0 0 120 32.328">
  <path id="Path_114" data-name="Path 114" d="M197.949,245.8a2.023,2.023,0,0,1,1.67,1.986v7.981a2.021,2.021,0,0,1-2.015,2.015H186.075a2.021,2.021,0,0,1-2.015-2.015v-7.981a2.023,2.023,0,0,1,1.382-1.913v-2.648a6.148,6.148,0,0,1,6.131-6.131h.245a6.149,6.149,0,0,1,6.131,6.131Zm-6.109,3.05a1.767,1.767,0,0,1,1.3,2.967l.274,3.279h-3.145l.274-3.279a1.768,1.768,0,0,1,1.3-2.967Zm-4.06-3.08h7.741v-1.735c0-2.967-1.334-4.538-3.737-4.538h-.175c-2.4,0-3.829,1.966-3.829,4.369Z" transform="translate(-184.06 -236.264)" fill="#00a3df" fill-rule="evenodd"/>
  <rect id="Rectangle_79" data-name="Rectangle 79" width="10.25" height="2.031" transform="translate(19.05 4.41)" fill="#00a3df"/>
  <path id="Path_115" data-name="Path 115" d="M222.448,233.822h21.615a4.154,4.154,0,0,1,4.142,4.142v13.8a4.154,4.154,0,0,1-4.142,4.142H228.53a4.141,4.141,0,0,0,1.009-2.025h14.549a2.126,2.126,0,0,0,2.12-2.12v-2.542H229.727v-3.991a1.937,1.937,0,0,0-.662-1.457h17.143v-5.808a2.127,2.127,0,0,0-2.12-2.121H226a4.149,4.149,0,0,0-3.556-2.025" transform="translate(-212.725 -233.822)" fill="#00a3df" fill-rule="evenodd"/>
  <path id="Path_116" data-name="Path 116" d="M360.64,341.147h.621v1.546a1.15,1.15,0,0,1,.964-.473,1.425,1.425,0,0,1,1.414,1.568,1.448,1.448,0,0,1-1.453,1.557,1.193,1.193,0,0,1-.958-.462v.388h-.587Zm1.482,3.649a.909.909,0,0,0,.89-1,.919.919,0,0,0-.884-1.02,1.021,1.021,0,0,0-.006,2.024Z" transform="translate(-315.914 -313.963)" fill="#00a3df"/>
  <path id="Path_117" data-name="Path 117" d="M374.706,349.671l.422-1.072-1.18-2.925h.667l.8,2.167.792-2.167h.65l-1.557,4Z" transform="translate(-325.852 -317.343)" fill="#00a3df"/>
  <path id="Path_118" data-name="Path 118" d="M451.721,340.22a.356.356,0,0,0-.39-.389h-1.687c-.907,0-1.3.388-1.3,1.3v1.816c0,.359-.161.519-.53.519h-2.195a.366.366,0,0,0-.389.392.361.361,0,0,0,.384.386h2.2c.9,0,1.308-.388,1.308-1.3v-1.816c0-.387.14-.519.519-.519h1.687a.358.358,0,0,0,.39-.39" transform="translate(-379.082 -312.98)" fill="#fff" fill-rule="evenodd"/>
  <path id="Path_119" data-name="Path 119" d="M402.273,339.828h-3.893a1.226,1.226,0,0,0-1.3,1.3v1.816a1.223,1.223,0,0,0,1.3,1.3h3.114a.555.555,0,0,0,.518-.517v-.908a.376.376,0,0,0-.38-.389.368.368,0,0,0-.4.389v.648h-2.855a.558.558,0,0,1-.519-.519v-1.816a.56.56,0,0,1,.519-.52h3.893a.557.557,0,0,1,.519.519v2.725a.384.384,0,0,0,.389.389.357.357,0,0,0,.389-.389v-2.725a1.226,1.226,0,0,0-1.3-1.3" transform="translate(-343.128 -312.978)" fill="#fff" fill-rule="evenodd"/>
  <path id="Path_120" data-name="Path 120" d="M473.92,342.946c0,.909.381,1.3,1.3,1.3h4.8a.389.389,0,0,0,.005-.778h-4.8c-.39-.006-.519-.139-.519-.519V341.13c0-.388.141-.519.519-.519h3.892c.366,0,.519.136.519.519s-.136.518-.519.518h-3.241a.344.344,0,0,0-.389.389.35.35,0,0,0,.389.39h3.241c.919,0,1.3-.39,1.3-1.3s-.391-1.3-1.3-1.3h-3.892c-.932,0-1.3.389-1.3,1.3Z" transform="translate(-400.502 -312.981)" fill="#fff" fill-rule="evenodd"/>
  <path id="Path_121" data-name="Path 121" d="M502.6,342.946c0,.909.381,1.3,1.3,1.3h4.361a.365.365,0,0,0,.39-.391.355.355,0,0,0-.385-.387H503.9c-.389-.006-.519-.139-.519-.519V341.13c0-.379.13-.513.519-.519h4.356a.389.389,0,0,0,.005-.779H503.9c-.916,0-1.3.389-1.3,1.3Z" transform="translate(-421.92 -312.981)" fill="#fff" fill-rule="evenodd"/>
  <path id="Path_122" data-name="Path 122" d="M529.866,342.939c0,.909.382,1.3,1.3,1.3h3.892c.916,0,1.3-.395,1.3-1.3v-1.816c0-.908-.381-1.291-1.3-1.291h-3.892c-.915,0-1.3.383-1.3,1.291Zm1.3.525c-.389-.005-.519-.146-.519-.525v-1.816c0-.379.13-.507.519-.512h3.892c.389.005.519.139.519.518v1.81c0,.379-.131.519-.519.526Z" transform="translate(-442.278 -312.981)" fill="#fff" fill-rule="evenodd"/>
  <path id="Path_123" data-name="Path 123" d="M432.25,340.22a.356.356,0,0,0-.39-.389h-1.687c-.907,0-1.3.388-1.3,1.3v1.816c0,.359-.16.519-.529.519h-2.21a.389.389,0,0,0,0,.778h2.21c.9,0,1.308-.388,1.308-1.3v-1.816c0-.387.14-.519.519-.519h1.687a.358.358,0,0,0,.39-.39" transform="translate(-364.542 -312.98)" fill="#fff" fill-rule="evenodd"/>
  <path id="Path_124" data-name="Path 124" d="M398.6,260.967a5.742,5.742,0,0,0,5.706,3.989c3.484,0,5.63-2.222,5.63-5.176,0-5.554-8-4.923-8-8.407a2.192,2.192,0,0,1,2.449-2.171,3.186,3.186,0,0,1,2.954,2.071l2.323-1.035a5.351,5.351,0,0,0-5.226-3.611c-3.257,0-5.3,2.02-5.3,4.772,0,5.681,7.953,4.848,7.953,8.584a2.349,2.349,0,0,1-2.651,2.373,3.564,3.564,0,0,1-3.459-2.5Zm-10.932,3.661h8.988V262.1h-6.186v-5.2h5.151v-2.5h-5.151v-4.923h5.933v-2.525h-8.736Zm-13.508-2.449v-12.75h1.641c3.787,0,6.236,2.3,6.236,6.362,0,4.216-2.449,6.388-6.236,6.388Zm-2.8,2.449h4.166c5.832,0,9.417-3.08,9.417-8.837,0-5.529-3.51-8.837-9.417-8.837h-4.166Zm-6.488-16.436a1.717,1.717,0,1,0,1.717-1.717A1.7,1.7,0,0,0,364.874,248.192Zm.353,16.436h2.752V251.449h-2.752Zm-2.045-13.507a3.935,3.935,0,0,0-3.762,2.4v-2.07h-2.7v13.179h2.752v-5.681c0-2.853.833-5.05,3.711-5.05Zm-15.2,13.507h2.8V249.479h4.443v-2.525H343.54v2.525h4.444Z" transform="translate(-303.146 -243.27)" fill="#fff"/>
  <path id="Path_125" data-name="Path 125" d="M613.672,265.075h11.185V262.6h-7.9c.429-2.8,7.675-5.378,7.675-10.377,0-3.03-2.121-5.151-5.5-5.151a5.353,5.353,0,0,0-5.454,4.292l2.449.707a2.885,2.885,0,0,1,2.9-2.4,2.52,2.52,0,0,1,2.752,2.651c0,3.888-8.1,6.741-8.1,11.74Z" transform="translate(-504.857 -243.717)" fill="#00a3df"/>
</svg>
